<mxfile host="app.diagrams.net" modified="2023-02-06T11:56:59.312Z" agent="5.0 (Windows NT 10.0; Win64; x64) AppleWebKit/537.36 (KHTML, like Gecko) Chrome/109.0.0.0 Safari/537.36" etag="7z-0KpoNZOQfByLtThyY" version="20.8.16" type="github">
  <diagram name="Page-1" id="kxPQBd4SaF__wtYdb1RR">
    <mxGraphModel dx="880" dy="484" grid="1" gridSize="10" guides="1" tooltips="1" connect="1" arrows="1" fold="1" page="1" pageScale="1" pageWidth="827" pageHeight="1169" math="0" shadow="0">
      <root>
        <mxCell id="0" />
        <mxCell id="1" parent="0" />
        <mxCell id="5SdZK2xEEZFwPjjDHowP-1" value="&lt;p align=&quot;center&quot; class=&quot;MsoNormal&quot; style=&quot;font-size: 14px;&quot;&gt;Entrepreneuriat&lt;/p&gt;" style="text;html=1;strokeColor=none;fillColor=none;align=center;verticalAlign=middle;whiteSpace=wrap;rounded=0;strokeWidth=1;fontSize=14;fontStyle=1" vertex="1" parent="1">
          <mxGeometry x="580" y="40" width="170" height="30" as="geometry" />
        </mxCell>
        <mxCell id="5SdZK2xEEZFwPjjDHowP-3" value="" style="rounded=0;whiteSpace=wrap;html=1;strokeWidth=2;fontSize=14;fillColor=none;" vertex="1" parent="1">
          <mxGeometry x="520" y="40" width="280" height="30" as="geometry" />
        </mxCell>
        <mxCell id="5SdZK2xEEZFwPjjDHowP-5" value="&lt;p align=&quot;center&quot; class=&quot;MsoNormal&quot; style=&quot;font-size: 14px;&quot;&gt;1934 premier livre académique&lt;/p&gt;" style="rounded=0;whiteSpace=wrap;html=1;strokeWidth=1;fontSize=14;fillColor=none;" vertex="1" parent="1">
          <mxGeometry x="520" y="80" width="280" height="30" as="geometry" />
        </mxCell>
        <mxCell id="5SdZK2xEEZFwPjjDHowP-6" value="&lt;p align=&quot;center&quot; class=&quot;MsoNormal&quot;&gt;1953 première conférence&lt;/p&gt;" style="rounded=0;whiteSpace=wrap;html=1;strokeWidth=1;fontSize=14;fillColor=none;" vertex="1" parent="1">
          <mxGeometry x="520" y="130" width="280" height="30" as="geometry" />
        </mxCell>
        <mxCell id="5SdZK2xEEZFwPjjDHowP-7" value="&lt;p align=&quot;center&quot; class=&quot;MsoNormal&quot;&gt;1953 première présentation académique&lt;/p&gt;" style="rounded=0;whiteSpace=wrap;html=1;strokeWidth=1;fontSize=14;fillColor=none;" vertex="1" parent="1">
          <mxGeometry x="520" y="160" width="280" height="30" as="geometry" />
        </mxCell>
        <mxCell id="5SdZK2xEEZFwPjjDHowP-8" value="&lt;p align=&quot;center&quot; class=&quot;MsoNormal&quot;&gt;1954 prémier rapport&lt;/p&gt;" style="rounded=0;whiteSpace=wrap;html=1;strokeWidth=1;fontSize=14;fillColor=none;" vertex="1" parent="1">
          <mxGeometry x="520" y="190" width="280" height="30" as="geometry" />
        </mxCell>
        <mxCell id="5SdZK2xEEZFwPjjDHowP-9" value="&lt;p align=&quot;center&quot; class=&quot;MsoNormal&quot;&gt;1958 première revue de littérature&lt;/p&gt;" style="rounded=0;whiteSpace=wrap;html=1;strokeWidth=1;fontSize=14;fillColor=none;" vertex="1" parent="1">
          <mxGeometry x="520" y="240" width="280" height="30" as="geometry" />
        </mxCell>
        <mxCell id="5SdZK2xEEZFwPjjDHowP-10" value="&lt;p align=&quot;center&quot; class=&quot;MsoNormal&quot;&gt;1963 premier journal/ revue académique&lt;/p&gt;" style="rounded=0;whiteSpace=wrap;html=1;strokeWidth=1;fontSize=14;fillColor=none;" vertex="1" parent="1">
          <mxGeometry x="520" y="300" width="280" height="30" as="geometry" />
        </mxCell>
        <mxCell id="5SdZK2xEEZFwPjjDHowP-11" value="&lt;p align=&quot;center&quot; class=&quot;MsoNormal&quot;&gt;1970 première conférence académique&lt;/p&gt;" style="rounded=0;whiteSpace=wrap;html=1;strokeWidth=1;fontSize=14;fillColor=none;" vertex="1" parent="1">
          <mxGeometry x="520" y="380" width="280" height="30" as="geometry" />
        </mxCell>
        <mxCell id="5SdZK2xEEZFwPjjDHowP-12" value="&lt;p align=&quot;center&quot; class=&quot;MsoNormal&quot;&gt;1971 premier volume édité&lt;/p&gt;" style="rounded=0;whiteSpace=wrap;html=1;strokeWidth=1;fontSize=14;fillColor=none;" vertex="1" parent="1">
          <mxGeometry x="520" y="410" width="280" height="30" as="geometry" />
        </mxCell>
        <mxCell id="5SdZK2xEEZFwPjjDHowP-13" value="&lt;p align=&quot;center&quot; class=&quot;MsoNormal&quot;&gt;1972 premier numéro spécial&lt;/p&gt;" style="rounded=0;whiteSpace=wrap;html=1;strokeWidth=1;fontSize=14;fillColor=none;" vertex="1" parent="1">
          <mxGeometry x="520" y="440" width="280" height="30" as="geometry" />
        </mxCell>
        <mxCell id="5SdZK2xEEZFwPjjDHowP-14" value="&lt;p align=&quot;center&quot; class=&quot;MsoNormal&quot;&gt;1976 premier prix de la recherche&lt;/p&gt;" style="rounded=0;whiteSpace=wrap;html=1;strokeWidth=1;fontSize=14;fillColor=none;" vertex="1" parent="1">
          <mxGeometry x="520" y="510" width="280" height="30" as="geometry" />
        </mxCell>
        <mxCell id="5SdZK2xEEZFwPjjDHowP-15" value="&lt;p align=&quot;center&quot; class=&quot;MsoNormal&quot;&gt;1981&amp;nbsp; première conférence académique&lt;/p&gt;" style="rounded=0;whiteSpace=wrap;html=1;strokeWidth=1;fontSize=14;fillColor=none;" vertex="1" parent="1">
          <mxGeometry x="520" y="600" width="280" height="30" as="geometry" />
        </mxCell>
      </root>
    </mxGraphModel>
  </diagram>
</mxfile>
